<svg xmlns="http://www.w3.org/2000/svg" width="512" height="512" viewBox="0 0 512 512" version="1.1">
	<path d="M 206.200 1.200 C 204.463 2.937, 204.662 4.060, 208.031 11.569 C 215.028 27.163, 221.590 50.618, 225.079 72.500 C 227.083 85.065, 229.857 128.476, 228.729 129.604 C 228.370 129.964, 224.796 127.215, 220.788 123.497 C 207.241 110.930, 185.809 98.299, 168.282 92.552 C 153.007 87.543, 142.774 85.912, 123 85.333 C 103.391 84.759, 99.675 85.310, 98.729 88.927 C 97.777 92.568, 100.959 94.711, 111.500 97.524 C 135.499 103.928, 156.013 115.342, 173.236 131.873 C 181.656 139.955, 190 149.609, 190 151.269 C 190 151.544, 187.412 152.080, 184.250 152.460 C 176.162 153.431, 160.193 157.499, 149 161.440 C 99.077 179.015, 56.902 219.945, 38.832 268.354 C 30.815 289.832, 27.747 307.139, 27.726 331 C 27.700 360.716, 33.234 384.610, 46.047 410.093 C 80.970 479.552, 156.782 519.803, 235.389 510.622 C 252.754 508.594, 259.396 508.591, 276.155 510.601 C 304.356 513.983, 337.415 510.063, 364.540 500.121 C 413.562 482.153, 454.448 442.304, 472.562 394.838 C 480.793 373.270, 484.148 354.665, 484.167 330.500 C 484.186 305.045, 480.161 285.039, 470.324 261.703 C 457.044 230.199, 433.293 201.928, 402.988 181.554 C 382.216 167.589, 350.555 155.408, 327.250 152.416 C 324.363 152.046, 322 151.302, 322 150.763 C 322 149.244, 331.249 138.067, 337.172 132.427 C 356.241 114.270, 373.393 105.168, 408 94.843 C 411.669 93.748, 412.556 93.022, 412.801 90.914 C 413.378 85.949, 411.494 85.500, 390.097 85.500 C 368.277 85.500, 361.218 86.557, 343.349 92.502 C 322.729 99.361, 304.654 110.316, 287.019 126.643 L 281.304 131.934 280.035 126.217 C 271.366 87.136, 247.758 43.287, 215.714 6.750 C 209.681 -0.129, 208.322 -0.922, 206.200 1.200" stroke="none" fill="black" fill-rule="evenodd"/>
</svg>